<?xml version="1.0" encoding="UTF-8" standalone="no"?>
<!-- Uploaded to: SVG Repo, www.svgrepo.com, Generator: SVG Repo Mixer Tools -->

<svg
   height="800px"
   width="800px"
   version="1.1"
   id="_x32_"
   viewBox="0 0 512 512"
   xml:space="preserve"
   sodipodi:docname="doberman-barking.svg"
   inkscape:version="1.3.2 (091e20e, 2023-11-25, custom)"
   xmlns:inkscape="http://www.inkscape.org/namespaces/inkscape"
   xmlns:sodipodi="http://sodipodi.sourceforge.net/DTD/sodipodi-0.dtd"
   xmlns="http://www.w3.org/2000/svg"
   xmlns:svg="http://www.w3.org/2000/svg"><defs
   id="defs2" /><sodipodi:namedview
   id="namedview2"
   pagecolor="#ffffff"
   bordercolor="#000000"
   borderopacity="0.25"
   inkscape:showpageshadow="2"
   inkscape:pageopacity="0.0"
   inkscape:pagecheckerboard="0"
   inkscape:deskcolor="#d1d1d1"
   inkscape:zoom="0.6956163"
   inkscape:cx="202.69795"
   inkscape:cy="465.05523"
   inkscape:window-width="1920"
   inkscape:window-height="1001"
   inkscape:window-x="-9"
   inkscape:window-y="-9"
   inkscape:window-maximized="1"
   inkscape:current-layer="_x32_" />
<style
   type="text/css"
   id="style1">
	.st0{fill:#000000;}
</style>
<g
   id="g2">
	<path
   class="st0"
   d="m 343.22243,114.37214 c 0,0 -30.41664,-106.3839438 -40.32164,-98.973944 0,0 -51.21032,42.903577 -43.79032,89.872574 0,0 -101.16461,58.77222 -103.64061,63.71522 -2.476,4.953 -21.90624,51.69943 -21.90624,51.69943 0,0 -85.523615,14.89675 -92.952615,22.31475 -3.84469,3.8504 -3.881224,24.44771 11.058029,35.76427 3.022499,2.28955 150.018896,18.8511 152.827976,21.31862 3.21985,2.82834 -135.085324,54.84611 -134.313446,58.81806 2.284713,11.75675 18.792483,27.37192 24.628433,25.70445 C 112.128,379.65257 222.899,360.909 222.899,360.909 l 13.064,54.533 h 222.476 z"
   id="path1"
   sodipodi:nodetypes="ccccccsssccccc" />
	<path
   class="st0"
   d="M468.071,435.471h-227.3L259.096,512H499.68L468.071,435.471z M294.921,489.348   c-7.884,0-14.276-6.383-14.276-14.283c0-7.885,6.392-14.285,14.276-14.285s14.275,6.4,14.275,14.285   C309.196,482.965,302.805,489.348,294.921,489.348z M368.182,489.348c-7.903,0-14.293-6.383-14.293-14.283   c0-7.885,6.39-14.285,14.293-14.285c7.865,0,14.266,6.4,14.266,14.285C382.447,482.965,376.047,489.348,368.182,489.348z    M436.643,489.348c-7.884,0-14.266-6.383-14.266-14.283c0-7.885,6.382-14.285,14.266-14.285c7.884,0,14.284,6.4,14.284,14.285   C450.928,482.965,444.527,489.348,436.643,489.348z"
   id="path2" />
</g>
<path
   style="fill:#000000;stroke:#000000;stroke-width:6.41715;stroke-linejoin:round;stroke-dasharray:none"
   d="M 52.835146,303.70672 11.757128,292.0842 Z"
   id="path4" /><path
   style="fill:#000000;stroke:#000000;stroke-width:6.41715;stroke-linejoin:round;stroke-dasharray:none"
   d="M 53.769461,334.46394 12.605856,345.7796 Z"
   id="path4-6" /><path
   style="fill:#000000;stroke:#000000;stroke-width:5.98915;stroke-linejoin:round;stroke-dasharray:none"
   d="m 7.4173338,318.88647 40.7140382,1.14151 z"
   id="path5" /></svg>
