<?xml version="1.0" encoding="UTF-8" standalone="no"?>
<!-- Uploaded to: SVG Repo, www.svgrepo.com, Generator: SVG Repo Mixer Tools -->

<svg
   height="800"
   width="800"
   version="1.1"
   id="_x32_"
   viewBox="0 0 512 512"
   xml:space="preserve"
   sodipodi:docname="doberman-barking.svg"
   inkscape:version="1.3.2 (091e20e, 2023-11-25, custom)"
   xmlns:inkscape="http://www.inkscape.org/namespaces/inkscape"
   xmlns:sodipodi="http://sodipodi.sourceforge.net/DTD/sodipodi-0.dtd"
   xmlns="http://www.w3.org/2000/svg"
   xmlns:svg="http://www.w3.org/2000/svg"><defs
   id="defs2" /><sodipodi:namedview
   id="namedview2"
   pagecolor="#ffffff"
   bordercolor="#000000"
   borderopacity="0.25"
   inkscape:showpageshadow="2"
   inkscape:pageopacity="0.0"
   inkscape:pagecheckerboard="0"
   inkscape:deskcolor="#d1d1d1"
   inkscape:zoom="0.6956163"
   inkscape:cx="202.69795"
   inkscape:cy="465.05523"
   inkscape:window-width="1920"
   inkscape:window-height="1001"
   inkscape:window-x="-9"
   inkscape:window-y="-9"
   inkscape:window-maximized="1"
   inkscape:current-layer="_x32_" />
<style
   type="text/css"
   id="style1">
	.st0{fill:#000000;}
</style>

<style
   type="text/css"
   id="style1-8">
	.st0{fill:#000000;}
</style><path
   class="st0"
   d="m 468.40433,436.0642 h -227.3 l 18.32499,76.529 h 240.584 z m -173.15,53.877 c -7.884,0 -14.276,-6.383 -14.276,-14.283 0,-7.885 6.392,-14.285 14.276,-14.285 7.884,0 14.275,6.4 14.275,14.285 0,7.9 -6.39101,14.283 -14.275,14.283 z m 73.261,0 c -7.90301,0 -14.29301,-6.383 -14.29301,-14.283 0,-7.885 6.39,-14.285 14.29301,-14.285 7.865,0 14.266,6.4 14.266,14.285 -0.001,7.9 -6.401,14.283 -14.266,14.283 z m 68.461,0 c -7.884,0 -14.26601,-6.383 -14.26601,-14.283 0,-7.885 6.38201,-14.285 14.26601,-14.285 7.884,0 14.284,6.4 14.284,14.285 9.9e-4,7.9 -6.4,14.283 -14.284,14.283 z"
   id="path2-0"
   style="display:inline;fill:#000000;fill-opacity:1"
   inkscape:label="collar" /><g
   id="g3"
   inkscape:label="bark"><path
     style="fill:#000000;stroke:#000000;stroke-width:6.41715;stroke-linejoin:round;stroke-dasharray:none"
     d="M 52.835146,303.70672 11.757128,292.0842 Z"
     id="path4" /><path
     style="fill:#000000;stroke:#000000;stroke-width:6.41715;stroke-linejoin:round;stroke-dasharray:none"
     d="M 53.769461,334.46394 12.605856,345.7796 Z"
     id="path4-6" /><path
     style="fill:#000000;stroke:#000000;stroke-width:5.98915;stroke-linejoin:round;stroke-dasharray:none"
     d="m 7.4173338,318.88647 40.7140382,1.14151 z"
     id="path5" /></g><path
   class="st0"
   d="m 343.22243,114.37214 c 0,0 -30.41664,-106.3839438 -40.32164,-98.973944 0,0 -51.21032,42.903577 -43.79032,89.872574 0,0 -101.16461,58.77222 -103.64061,63.71522 -2.476,4.953 -21.90624,51.69943 -21.90624,51.69943 0,0 -85.523615,14.89675 -92.952615,22.31475 -3.84469,3.8504 -3.881224,24.44771 11.058029,35.76427 3.022499,2.28955 150.018896,18.8511 152.827976,21.31862 3.21985,2.82834 -135.085324,54.84611 -134.313446,58.81806 2.284713,11.75675 18.792483,27.37192 24.628433,25.70445 C 112.128,379.65257 222.899,360.909 222.899,360.909 l 13.064,54.533 h 222.476 z"
   id="path1"
   sodipodi:nodetypes="ccccccsssccccc"
   style="display:inline"
   inkscape:label="barking-head" /><text
   xml:space="preserve"
   style="font-style:normal;font-variant:normal;font-weight:bold;font-stretch:normal;font-size:152.554px;font-family:Ubuntu;-inkscape-font-specification:'Ubuntu Bold';letter-spacing:-2.496px;fill:#7f4524;stroke:#000000;stroke-width:0;stroke-linejoin:round"
   x="301.24554"
   y="-162.73625"
   id="text2"
   transform="rotate(69.969686)"
   inkscape:label="KC"><tspan
     sodipodi:role="line"
     id="tspan2"
     style="font-style:normal;font-variant:normal;font-weight:bold;font-stretch:normal;font-family:Ubuntu;-inkscape-font-specification:'Ubuntu Bold';letter-spacing:-2.496px;stroke-width:0"
     x="301.24554"
     y="-162.73625">KC</tspan></text></svg>
